<svg width="40" height="40" viewBox="0 0 40 40" fill="none" xmlns="http://www.w3.org/2000/svg">
<path d="M8.33301 30V36.2767L10.858 34.7617L18.7947 30H26.6663C28.5047 30 29.9997 28.505 29.9997 26.6667V13.3333C29.9997 11.495 28.5047 10 26.6663 10H6.66634C4.82801 10 3.33301 11.495 3.33301 13.3333V26.6667C3.33301 28.505 4.82801 30 6.66634 30H8.33301ZM6.66634 13.3333H26.6663V26.6667H17.8713L11.6663 30.39V26.6667H6.66634V13.3333Z" fill="white"/>
<path d="M33.3333 3.33333H13.3333C11.495 3.33333 10 4.82833 10 6.66667H30C31.8383 6.66667 33.3333 8.16167 33.3333 10V23.3333C35.1717 23.3333 36.6667 21.8383 36.6667 20V6.66667C36.6667 4.82833 35.1717 3.33333 33.3333 3.33333Z" fill="white"/>
</svg>
