<svg width="40" height="40" viewBox="0 0 40 40" fill="none" xmlns="http://www.w3.org/2000/svg">
<path d="M35.7103 18.4917L7.37692 5.15837C7.09165 5.02339 6.77388 4.97228 6.46067 5.01098C6.14745 5.04968 5.85169 5.1766 5.60784 5.37695C5.364 5.57731 5.18212 5.84283 5.0834 6.14259C4.98468 6.44235 4.97318 6.76399 5.05026 7.07003L8.28192 20L5.05026 32.93C4.97246 33.2362 4.98345 33.5582 5.08194 33.8583C5.18043 34.1584 5.36235 34.4243 5.60642 34.6248C5.85048 34.8254 6.1466 34.9523 6.46014 34.9907C6.77368 35.0291 7.09167 34.9774 7.37692 34.8417L35.7103 21.5084C35.9966 21.3738 36.2387 21.1605 36.4083 20.8934C36.5778 20.6263 36.6679 20.3164 36.6679 20C36.6679 19.6837 36.5778 19.3738 36.4083 19.1067C36.2387 18.8396 35.9966 18.6263 35.7103 18.4917ZM9.13526 30.3284L10.5336 24.7334L20.0003 20L10.5336 15.2667L9.13526 9.6717L31.0853 20L9.13526 30.3284Z" fill="white"/>
</svg>
